<?xml version="1.0" encoding="UTF-8"?>
<!DOCTYPE svg PUBLIC "-//W3C//DTD SVG 1.1//EN" "http://www.w3.org/Graphics/SVG/1.1/DTD/svg11.dtd">
<!-- Creator: CorelDRAW X8 -->
<svg xmlns="http://www.w3.org/2000/svg" xml:space="preserve" width="136.205mm" height="9mm" version="1.1" style="shape-rendering:geometricPrecision; text-rendering:geometricPrecision; image-rendering:optimizeQuality; fill-rule:evenodd; clip-rule:evenodd"
viewBox="0 0 13621 900"
 xmlns:xlink="http://www.w3.org/1999/xlink">
 <defs>
  <style type="text/css">
   <![CDATA[
    .fil0 {fill:#00ABC9}
   ]]>
  </style>
 </defs>
 <g id="Слой_x0020_1">
  <metadata id="CorelCorpID_0Corel-Layer"/>
  <g>
   <path class="fil0" d="M517 688l0 0 0 0zm1138 -688l11763 0 7 0 4 0 3 0 24 4 25 7 21 7 21 14 17 18 14 17 14 21 7 25 11 39 10 42 7 43 7 42 4 42 3 46 4 42 0 43 0 42 -4 42 -3 43 -4 42 -7 42 -7 43 -10 42 -11 42 -7 22 -14 24 -14 18 -17 18 -21 10 -21 11 -25 7 -13 0 -25 0 -11763 0 -63 0 -45 0 -49 0 -14 0 -3 -4 -4 -3 -7 0 -3 -7 -4 -4 -56 7 -45 4 -17 3 -4 0 -740 -187 0 -7 -33 -3 -49 -22 19 16 -21 -5 -111 -28 -11 -4 -7 -3 -10 -11c-6,-4 -9,-11 -11,-21l0 -10c0,-110 0,-219 0,-329l11 -24 10 -11 18 -7 146 -35 789 -198 4 -3 7 0 3 0 4 0 7 -4 3 0 4 0 3 0 7 0 31 0 39 0 42 0 3 0 56 0 101 0z"/>
  </g>
 </g>
</svg>
