<?xml version="1.0" encoding="UTF-8"?>
<!DOCTYPE svg PUBLIC "-//W3C//DTD SVG 1.1//EN" "http://www.w3.org/Graphics/SVG/1.1/DTD/svg11.dtd">
<!-- Creator: CorelDRAW X8 -->
<svg xmlns="http://www.w3.org/2000/svg" xml:space="preserve" width="210mm" height="297mm" version="1.1" style="shape-rendering:geometricPrecision; text-rendering:geometricPrecision; image-rendering:optimizeQuality; fill-rule:evenodd; clip-rule:evenodd"
viewBox="0 0 21000 29700"
 xmlns:xlink="http://www.w3.org/1999/xlink">
 <defs>
  <style type="text/css">
   <![CDATA[
    .fil0 {fill:#00ABC9}
   ]]>
  </style>
 </defs>
 <g id="Слой_x0020_1">
  <metadata id="CorelCorpID_0Corel-Layer"/>
  <g>
   <path class="fil0" d="M3440 3584l0 0 0 0zm1138 -687l11763 0 7 0 4 0 3 0 24 3 25 7 21 7 21 14 17 18 14 18 14 21 7 24 11 39 10 43 7 42 7 42 4 43 3 45 3 43 0 42 0 42 -3 43 -3 42 -4 42 -7 43 -7 42 -10 42 -11 43 -7 21 -14 25 -14 17 -17 18 -21 10 -21 11 -25 7 -14 0 -24 0 -11763 0 -63 0 -45 0 -49 0 -14 0 -3 -3 -4 -4 -7 0 -3 -7 -4 -4 -56 8 -45 3 -17 4 -4 0 -740 -187 0 -8 -33 -3 -49 -22 19 17 -21 -6 -111 -28 -11 -3 -7 -4 -10 -10c-6,-5 -9,-12 -11,-22l0 -10c0,-110 0,-219 0,-328l11 -25 10 -11 18 -7 146 -35 789 -197 4 -4 7 0 3 0 4 0 7 -3 3 0 4 0 3 0 7 0 31 0 39 0 42 0 3 0 56 0 101 0z"/>
  </g>
 </g>
</svg>
