<?xml version="1.0" encoding="UTF-8"?>
<!DOCTYPE svg PUBLIC "-//W3C//DTD SVG 1.1//EN" "http://www.w3.org/Graphics/SVG/1.1/DTD/svg11.dtd">
<!-- Creator: CorelDRAW X8 -->
<svg xmlns="http://www.w3.org/2000/svg" xml:space="preserve" width="136.205mm" height="9mm" version="1.1" style="shape-rendering:geometricPrecision; text-rendering:geometricPrecision; image-rendering:optimizeQuality; fill-rule:evenodd; clip-rule:evenodd"
viewBox="0 0 13621 900"
 xmlns:xlink="http://www.w3.org/1999/xlink">
 <defs>
  <style type="text/css">
   <![CDATA[
    .str0 {stroke:black;stroke-width:20}
    .fil0 {fill:none}
    .fil2 {fill:#2B2A29;fill-rule:nonzero}
    .fil1 {fill:black;fill-rule:nonzero}
   ]]>
  </style>
 </defs>
 <g id="Слой_x0020_1">
  <metadata id="CorelCorpID_0Corel-Layer"/>
  <g id="_3105176076112">
   <path class="fil0 str0" d="M256 162c0,79 0,158 0,238"/>
   <path class="fil0 str0" d="M356 162c0,79 0,158 0,238"/>
   <path class="fil0 str0" d="M456 162c0,79 0,158 0,238"/>
   <path class="fil0 str0" d="M556 162c0,95 0,190 0,285"/>
   <path class="fil0 str0" d="M656 162c0,79 0,158 0,238"/>
   <path class="fil0 str0" d="M756 162c0,79 0,158 0,238"/>
   <path class="fil0 str0" d="M856 162c0,79 0,158 0,238"/>
   <path class="fil0 str0" d="M956 162c0,79 0,158 0,238"/>
   <path class="fil0 str0" d="M1056 162c0,119 0,238 0,356"/>
   <path class="fil0 str0" d="M1156 162c0,79 0,158 0,238"/>
   <path class="fil0 str0" d="M1256 162c0,79 0,158 0,238"/>
   <path class="fil0 str0" d="M1356 162c0,79 0,158 0,238"/>
   <path class="fil0 str0" d="M1456 162c0,79 0,158 0,238"/>
   <path class="fil0 str0" d="M1556 162c0,95 0,190 0,285"/>
   <path class="fil0 str0" d="M1656 162c0,79 0,158 0,238"/>
   <path class="fil0 str0" d="M1756 162c0,79 0,158 0,238"/>
   <path class="fil0 str0" d="M1856 162c0,79 0,158 0,238"/>
   <path class="fil0 str0" d="M1956 162c0,79 0,158 0,238"/>
   <path class="fil0 str0" d="M2056 162c0,119 0,238 0,356"/>
   <path class="fil0 str0" d="M2156 162c0,79 0,158 0,238"/>
   <path class="fil0 str0" d="M2256 162c0,79 0,158 0,238"/>
   <path class="fil0 str0" d="M2356 162c0,79 0,158 0,238"/>
   <path class="fil0 str0" d="M2456 162c0,79 0,158 0,238"/>
   <path class="fil0 str0" d="M2556 162c0,95 0,190 0,285"/>
   <path class="fil0 str0" d="M2656 162c0,79 0,158 0,238"/>
   <path class="fil0 str0" d="M2756 162c0,79 0,158 0,238"/>
   <path class="fil0 str0" d="M2856 162c0,79 0,158 0,238"/>
   <path class="fil0 str0" d="M2956 162c0,79 0,158 0,238"/>
   <path class="fil0 str0" d="M3056 162c0,119 0,238 0,356"/>
   <path class="fil0 str0" d="M3156 162c0,79 0,158 0,238"/>
   <path class="fil0 str0" d="M3256 162c0,79 0,158 0,238"/>
   <path class="fil0 str0" d="M3356 162c0,79 0,158 0,238"/>
   <path class="fil0 str0" d="M3456 162c0,79 0,158 0,238"/>
   <path class="fil0 str0" d="M3556 162c0,95 0,190 0,285"/>
   <path class="fil0 str0" d="M3656 162c0,79 0,158 0,238"/>
   <path class="fil0 str0" d="M3756 162c0,79 0,158 0,238"/>
   <path class="fil0 str0" d="M3856 162c0,79 0,158 0,238"/>
   <path class="fil0 str0" d="M3956 162c0,79 0,158 0,238"/>
   <path class="fil0 str0" d="M4056 162c0,119 0,238 0,356"/>
   <path class="fil0 str0" d="M4156 162c0,79 0,158 0,238"/>
   <path class="fil0 str0" d="M4256 162c0,79 0,158 0,238"/>
   <path class="fil0 str0" d="M4356 162c0,79 0,158 0,238"/>
   <path class="fil0 str0" d="M4456 162c0,79 0,158 0,238"/>
   <path class="fil0 str0" d="M4556 162c0,95 0,190 0,285"/>
   <path class="fil0 str0" d="M4656 162c0,79 0,158 0,238"/>
   <path class="fil0 str0" d="M4756 162c0,79 0,158 0,238"/>
   <path class="fil0 str0" d="M4856 162c0,79 0,158 0,238"/>
   <path class="fil0 str0" d="M4956 162c0,79 0,158 0,238"/>
   <path class="fil0 str0" d="M5056 162c0,119 0,238 0,356"/>
   <path class="fil0 str0" d="M5156 162c0,79 0,158 0,238"/>
   <path class="fil0 str0" d="M5256 162c0,79 0,158 0,238"/>
   <path class="fil0 str0" d="M5356 162c0,79 0,158 0,238"/>
   <path class="fil0 str0" d="M5456 162c0,79 0,158 0,238"/>
   <path class="fil0 str0" d="M5556 162c0,95 0,190 0,285"/>
   <path class="fil0 str0" d="M5656 162c0,79 0,158 0,238"/>
   <path class="fil0 str0" d="M5756 162c0,79 0,158 0,238"/>
   <path class="fil0 str0" d="M5856 162c0,79 0,158 0,238"/>
   <path class="fil0 str0" d="M5956 162c0,79 0,158 0,238"/>
   <path class="fil0 str0" d="M6056 162c0,119 0,238 0,356"/>
   <path class="fil0 str0" d="M6156 162c0,79 0,158 0,238"/>
   <path class="fil0 str0" d="M6256 162c0,79 0,158 0,238"/>
   <path class="fil0 str0" d="M6356 162c0,79 0,158 0,238"/>
   <path class="fil0 str0" d="M6456 162c0,79 0,158 0,238"/>
   <path class="fil0 str0" d="M6556 162c0,95 0,190 0,285"/>
   <path class="fil0 str0" d="M6656 162c0,79 0,158 0,238"/>
   <path class="fil0 str0" d="M6756 162c0,79 0,158 0,238"/>
   <path class="fil0 str0" d="M6856 162c0,79 0,158 0,238"/>
   <path class="fil0 str0" d="M6956 162c0,79 0,158 0,238"/>
   <path class="fil0 str0" d="M7056 162c0,119 0,238 0,356"/>
   <path class="fil0 str0" d="M7156 162c0,79 0,158 0,238"/>
   <path class="fil0 str0" d="M7256 162c0,79 0,158 0,238"/>
   <path class="fil0 str0" d="M7356 162c0,79 0,158 0,238"/>
   <path class="fil0 str0" d="M7456 162c0,79 0,158 0,238"/>
   <path class="fil0 str0" d="M7556 162c0,95 0,190 0,285"/>
   <path class="fil0 str0" d="M7656 162c0,79 0,158 0,238"/>
   <path class="fil0 str0" d="M7756 162c0,79 0,158 0,238"/>
   <path class="fil0 str0" d="M7856 162c0,79 0,158 0,238"/>
   <path class="fil0 str0" d="M7956 162c0,79 0,158 0,238"/>
   <path class="fil0 str0" d="M8056 162c0,119 0,238 0,356"/>
   <path class="fil0 str0" d="M8156 162c0,79 0,158 0,238"/>
   <path class="fil0 str0" d="M8256 162c0,79 0,158 0,238"/>
   <path class="fil0 str0" d="M8356 162c0,79 0,158 0,238"/>
   <path class="fil0 str0" d="M8456 162c0,79 0,158 0,238"/>
   <path class="fil0 str0" d="M8556 162c0,95 0,190 0,285"/>
   <path class="fil0 str0" d="M8656 162c0,79 0,158 0,238"/>
   <path class="fil0 str0" d="M8756 162c0,79 0,158 0,238"/>
   <path class="fil0 str0" d="M8856 162c0,79 0,158 0,238"/>
   <path class="fil0 str0" d="M8956 162c0,79 0,158 0,238"/>
   <path class="fil0 str0" d="M9056 162c0,119 0,238 0,356"/>
   <path class="fil0 str0" d="M9156 162c0,79 0,158 0,238"/>
   <path class="fil0 str0" d="M9256 162c0,79 0,158 0,238"/>
   <path class="fil0 str0" d="M9356 162c0,79 0,158 0,238"/>
   <path class="fil0 str0" d="M9456 162c0,79 0,158 0,238"/>
   <path class="fil0 str0" d="M9556 162c0,95 0,190 0,285"/>
   <path class="fil0 str0" d="M9656 162c0,79 0,158 0,238"/>
   <path class="fil0 str0" d="M9756 162c0,79 0,158 0,238"/>
   <path class="fil0 str0" d="M9856 162c0,79 0,158 0,238"/>
   <path class="fil0 str0" d="M9956 162c0,79 0,158 0,238"/>
   <path class="fil0 str0" d="M10056 162c0,119 0,238 0,356"/>
   <path class="fil0 str0" d="M10156 162c0,79 0,158 0,238"/>
   <path class="fil0 str0" d="M56 162c0,119 0,238 0,356"/>
   <path class="fil0 str0" d="M156 162c0,79 0,158 0,238"/>
   <g>
    <path class="fil1" d="M1064 669l-19 0 0 -85c-4,3 -10,6 -17,9 -8,3 -14,5 -20,7l0 -13c10,-4 20,-8 27,-13 8,-5 14,-10 17,-15l12 0 0 110z"/>
    <path class="fil1" d="M2092 657l0 12 -101 0c0,-3 1,-6 3,-9 2,-5 6,-10 12,-15 6,-4 14,-10 24,-16 17,-10 28,-18 34,-23 5,-6 8,-11 8,-16 0,-6 -2,-10 -8,-14 -5,-4 -12,-5 -20,-5 -9,0 -16,2 -22,5 -5,4 -8,10 -8,16l-19 -1c1,-10 6,-18 15,-23 8,-6 20,-9 34,-9 15,0 26,3 35,9 8,6 12,13 12,22 0,4 -1,9 -3,13 -3,4 -7,9 -13,13 -5,5 -15,11 -28,19 -12,7 -19,12 -22,14 -3,3 -6,5 -8,8l75 0z"/>
    <path class="fil1" d="M2994 640l19 -1c2,7 5,13 11,16 5,3 11,5 18,5 9,0 17,-2 23,-6 6,-5 9,-10 9,-17 0,-6 -3,-11 -9,-15 -5,-4 -12,-6 -21,-6 -4,0 -8,0 -13,1l2 -11c1,0 2,0 3,0 8,0 15,-2 21,-5 7,-3 10,-7 10,-13 0,-5 -2,-9 -7,-13 -5,-3 -11,-5 -18,-5 -7,0 -13,2 -18,5 -5,4 -8,9 -9,15l-19 -2c2,-9 7,-16 16,-21 8,-5 18,-8 30,-8 8,0 15,2 22,4 7,3 13,6 16,11 4,4 6,9 6,14 0,5 -2,9 -5,13 -4,4 -9,7 -16,9 9,1 16,5 21,9 5,5 7,11 7,18 0,9 -4,18 -14,24 -10,7 -22,10 -37,10 -13,0 -24,-3 -33,-8 -9,-6 -14,-14 -15,-23z"/>
    <path class="fil1" d="M4054 669l0 -26 -66 0 0 -12 69 -71 15 0 0 71 21 0 0 12 -21 0 0 26 -18 0zm0 -38l0 -49 -48 49 48 0z"/>
    <path class="fil2" d="M6091 587l-19 1c-1,-6 -4,-9 -7,-12 -5,-4 -11,-6 -19,-6 -6,0 -11,2 -15,4 -6,3 -11,8 -14,14 -4,5 -5,14 -6,25 5,-5 10,-9 17,-11 6,-3 13,-4 20,-4 13,0 23,4 32,10 9,7 13,15 13,26 0,7 -2,13 -6,19 -4,6 -10,10 -17,14 -7,3 -15,4 -24,4 -16,0 -28,-4 -38,-12 -10,-8 -15,-22 -15,-41 0,-21 5,-36 16,-46 10,-8 22,-13 39,-13 11,0 21,3 29,8 8,4 12,11 14,20zm-77 47c0,5 2,9 5,13 2,4 6,8 11,10 5,2 10,3 15,3 8,0 15,-2 21,-7 5,-4 8,-10 8,-18 0,-8 -3,-14 -8,-18 -6,-5 -13,-7 -21,-7 -9,0 -16,2 -22,7 -6,4 -9,10 -9,17z"/>
    <path class="fil2" d="M6995 574l0 -13 98 0 0 11c-10,7 -19,17 -29,29 -9,13 -17,25 -22,38 -3,9 -6,19 -7,30l-19 0c0,-8 3,-19 7,-31 5,-12 11,-24 19,-35 9,-12 18,-21 27,-29l-74 0z"/>
    <path class="fil2" d="M8023 610c-8,-2 -14,-5 -18,-9 -3,-4 -5,-8 -5,-13 0,-8 4,-15 12,-20 8,-6 18,-9 31,-9 13,0 24,3 32,9 8,5 12,12 12,20 0,5 -2,10 -5,13 -4,4 -10,7 -17,9 9,2 16,6 21,11 5,5 7,10 7,17 0,9 -4,17 -13,24 -10,6 -22,9 -36,9 -15,0 -27,-3 -37,-9 -9,-7 -13,-15 -13,-24 0,-7 2,-13 7,-18 5,-5 12,-8 22,-10zm-4 -23c0,5 2,10 7,13 4,3 10,5 18,5 7,0 13,-2 17,-5 5,-3 7,-7 7,-12 0,-5 -2,-9 -7,-13 -4,-3 -10,-5 -17,-5 -8,0 -14,2 -18,5 -5,4 -7,8 -7,12zm-6 51c0,4 1,7 3,11 3,4 7,6 12,8 5,2 10,3 16,3 9,0 16,-2 22,-6 5,-4 8,-9 8,-16 0,-6 -3,-12 -9,-16 -5,-4 -13,-6 -22,-6 -9,0 -16,2 -22,6 -5,4 -8,10 -8,16z"/>
    <path class="fil2" d="M8997 644l17 -1c2,6 5,10 9,13 4,3 10,4 17,4 5,0 10,-1 15,-3 4,-2 7,-4 10,-7 3,-3 5,-8 7,-13 2,-5 3,-11 3,-16 0,-1 0,-2 0,-3 -4,4 -9,8 -15,10 -7,3 -14,4 -21,4 -13,0 -23,-3 -32,-10 -9,-6 -13,-15 -13,-26 0,-11 4,-20 13,-26 9,-7 21,-11 34,-11 10,0 19,2 27,6 9,4 15,9 19,17 4,7 6,17 6,30 0,14 -2,26 -6,34 -4,8 -10,14 -19,19 -8,4 -18,6 -29,6 -12,0 -21,-2 -29,-7 -7,-5 -12,-11 -13,-20zm76 -48c0,-8 -3,-14 -9,-19 -5,-4 -12,-6 -20,-6 -9,0 -16,2 -22,7 -6,5 -9,11 -9,19 0,7 3,12 9,17 5,4 13,6 21,6 9,0 16,-2 21,-6 6,-5 9,-11 9,-18z"/>
    <path class="fil2" d="M10124 734l-49 0 0 -132c-17,12 -38,21 -62,27l0 -32c13,-3 26,-9 41,-17 15,-8 25,-18 30,-29l40 0 0 183zm154 -183c24,0 44,6 57,19 17,15 25,40 25,74 0,35 -8,60 -25,75 -13,13 -33,19 -57,19 -25,0 -44,-7 -59,-21 -15,-13 -23,-38 -23,-73 0,-34 8,-59 25,-74 14,-13 33,-19 57,-19zm0 29c-6,0 -11,1 -15,4 -5,3 -8,8 -11,15 -3,9 -5,24 -5,45 0,22 2,37 5,45 3,8 6,13 11,16 4,2 9,4 15,4 6,0 11,-2 15,-4 5,-3 8,-8 11,-15 3,-9 5,-24 5,-46 0,-21 -2,-36 -5,-44 -2,-8 -6,-13 -11,-16 -4,-3 -9,-4 -15,-4z"/>
    <path class="fil1" d="M4973 684l48 -3c2,8 6,14 12,18 7,5 15,7 24,7 10,0 19,-3 26,-9 7,-6 10,-15 10,-27 0,-11 -3,-19 -10,-25 -7,-6 -16,-8 -28,-8 -13,0 -26,4 -37,13l-39 -4 25 -95 128 0 0 33 -92 0 -7 31c10,-4 21,-6 33,-6 21,0 39,5 54,17 15,11 23,26 23,44 0,15 -6,28 -18,40 -17,16 -40,24 -69,24 -23,0 -42,-4 -57,-13 -15,-9 -23,-21 -26,-37z"/>
    <path class="fil1" d="M82 551c24,0 44,6 57,19 17,15 25,40 25,74 0,35 -8,60 -25,75 -13,13 -33,19 -57,19 -25,0 -44,-7 -59,-21 -15,-13 -23,-38 -23,-73 0,-34 8,-59 25,-74 14,-13 33,-19 57,-19zm0 29c-6,0 -11,1 -15,4 -5,3 -8,8 -11,15 -3,9 -5,24 -5,45 0,22 2,37 5,45 3,8 6,13 11,16 4,2 9,4 15,4 6,0 11,-2 15,-4 5,-3 8,-8 11,-15 3,-9 5,-24 5,-46 0,-21 -2,-36 -5,-44 -2,-8 -6,-13 -11,-16 -4,-3 -9,-4 -15,-4z"/>
   </g>
  </g>
 </g>
</svg>
